<svg id="Capa_1" enable-background="new 0 0 512 512" height="512" viewBox="0 0 512 512" width="512" xmlns="http://www.w3.org/2000/svg"><g><path d="m493.708 481.844h-475.42c-10.1 0-18.287-8.188-18.287-18.287v-383.037h511.994v383.037c0 10.1-8.187 18.287-18.287 18.287z" fill="#f8f6f6"/><path d="m512 96.392v367.165c0 10.095-8.189 18.284-18.294 18.284h-20.601c10.105 0 18.294-8.189 18.294-18.284v-367.165z" fill="#ebebeb"/><path d="m511.997 96.389h-511.994v-47.946c0-10.1 8.187-18.287 18.287-18.287h475.42c10.1 0 18.287 8.187 18.287 18.287z" fill="#b3dafe"/><path d="m512 48.443v47.949h-20.601v-47.949c0-10.095-8.189-18.284-18.294-18.284h20.601c10.105 0 18.294 8.189 18.294 18.284z" fill="#8ac9fe"/><path d="m153.561 96.287v385.459h-135.267c-10.105 0-18.294-8.189-18.294-18.294v-367.165z" fill="#fd8087"/><path d="m133.978 96.289h19.581v385.459h-19.581z" fill="#fe646f"/><g><path d="m73.507 141.66h-26.247c-4.142 0-7.5-3.358-7.5-7.5s3.358-7.5 7.5-7.5h26.247c4.142 0 7.5 3.358 7.5 7.5s-3.358 7.5-7.5 7.5z" fill="#fd4755"/></g><g><path d="m73.507 180.374h-26.247c-4.142 0-7.5-3.358-7.5-7.5s3.358-7.5 7.5-7.5h26.247c4.142 0 7.5 3.358 7.5 7.5s-3.358 7.5-7.5 7.5z" fill="#fd4755"/></g><g><path d="m73.507 219.088h-26.247c-4.142 0-7.5-3.358-7.5-7.5s3.358-7.5 7.5-7.5h26.247c4.142 0 7.5 3.358 7.5 7.5s-3.358 7.5-7.5 7.5z" fill="#fd4755"/></g><g><path d="m73.507 257.803h-26.247c-4.142 0-7.5-3.358-7.5-7.5s3.358-7.5 7.5-7.5h26.247c4.142 0 7.5 3.358 7.5 7.5s-3.358 7.5-7.5 7.5z" fill="#fd4755"/></g><g><path d="m73.507 296.517h-26.247c-4.142 0-7.5-3.358-7.5-7.5s3.358-7.5 7.5-7.5h26.247c4.142 0 7.5 3.358 7.5 7.5s-3.358 7.5-7.5 7.5z" fill="#fd4755"/></g><g><path d="m73.507 335.231h-26.247c-4.142 0-7.5-3.358-7.5-7.5s3.358-7.5 7.5-7.5h26.247c4.142 0 7.5 3.358 7.5 7.5s-3.358 7.5-7.5 7.5z" fill="#fd4755"/></g><g><path d="m73.507 373.945h-26.247c-4.142 0-7.5-3.358-7.5-7.5s3.358-7.5 7.5-7.5h26.247c4.142 0 7.5 3.358 7.5 7.5s-3.358 7.5-7.5 7.5z" fill="#fd4755"/></g><g><path d="m73.507 412.66h-26.247c-4.142 0-7.5-3.358-7.5-7.5s3.358-7.5 7.5-7.5h26.247c4.142 0 7.5 3.358 7.5 7.5s-3.358 7.5-7.5 7.5z" fill="#fd4755"/></g><g><path d="m73.507 451.374h-26.247c-4.142 0-7.5-3.358-7.5-7.5s3.358-7.5 7.5-7.5h26.247c4.142 0 7.5 3.358 7.5 7.5s-3.358 7.5-7.5 7.5z" fill="#fd4755"/></g><g><g><g><g><path d="m241.749 219.09c-.922 0-1.86-.171-2.77-.533-3.849-1.531-5.728-5.892-4.197-9.741l30.796-77.428c1.531-3.849 5.89-5.728 9.741-4.197 3.849 1.531 5.728 5.892 4.197 9.741l-30.796 77.428c-1.169 2.94-3.99 4.73-6.971 4.73z" fill="#cecece"/></g></g><g><g><path d="m301.91 215.377c-1.276 0-2.569-.326-3.752-1.012-3.584-2.076-4.807-6.665-2.73-10.249l18.458-31.867-18.392-30.505c-2.139-3.547-.997-8.157 2.55-10.295 3.548-2.14 8.157-.997 10.295 2.55l20.68 34.301c1.412 2.342 1.438 5.266.067 7.632l-20.68 35.702c-1.39 2.402-3.908 3.743-6.496 3.743z" fill="#cecece"/></g></g><g><g><path d="m212.388 215.377c-2.588 0-5.106-1.341-6.497-3.742l-20.68-35.702c-1.371-2.366-1.345-5.29.067-7.632l20.68-34.301c2.139-3.547 6.747-4.69 10.295-2.55 3.547 2.139 4.689 6.748 2.55 10.295l-18.392 30.505 18.458 31.867c2.076 3.584.854 8.173-2.73 10.249-1.182.685-2.475 1.011-3.751 1.011z" fill="#cecece"/></g></g></g><g><path d="m367.015 257.803h-175.314c-4.142 0-7.5-3.358-7.5-7.5s3.358-7.5 7.5-7.5h175.314c4.142 0 7.5 3.358 7.5 7.5s-3.358 7.5-7.5 7.5z" fill="#cecece"/></g><g><path d="m225.939 296.517h-34.238c-4.142 0-7.5-3.358-7.5-7.5s3.358-7.5 7.5-7.5h34.238c4.142 0 7.5 3.358 7.5 7.5s-3.358 7.5-7.5 7.5z" fill="#cecece"/></g><g><path d="m300.555 296.517h-34.239c-4.142 0-7.5-3.358-7.5-7.5s3.358-7.5 7.5-7.5h34.239c4.142 0 7.5 3.358 7.5 7.5s-3.358 7.5-7.5 7.5z" fill="#cecece"/></g><g><path d="m349.899 335.231h-34.238c-4.142 0-7.5-3.358-7.5-7.5s3.358-7.5 7.5-7.5h34.238c4.142 0 7.5 3.358 7.5 7.5s-3.358 7.5-7.5 7.5z" fill="#cecece"/></g><g><path d="m349.899 412.66h-34.238c-4.142 0-7.5-3.358-7.5-7.5s3.358-7.5 7.5-7.5h34.238c4.142 0 7.5 3.358 7.5 7.5s-3.358 7.5-7.5 7.5z" fill="#cecece"/></g><g><path d="m283.436 451.374h-91.735c-4.142 0-7.5-3.358-7.5-7.5s3.358-7.5 7.5-7.5h91.735c4.142 0 7.5 3.358 7.5 7.5s-3.358 7.5-7.5 7.5z" fill="#cecece"/></g><g><path d="m283.436 335.231h-91.735c-4.142 0-7.5-3.358-7.5-7.5s3.358-7.5 7.5-7.5h91.735c4.142 0 7.5 3.358 7.5 7.5s-3.358 7.5-7.5 7.5z" fill="#cecece"/></g><g><path d="m473.859 335.231h-91.735c-4.142 0-7.5-3.358-7.5-7.5s3.358-7.5 7.5-7.5h91.735c4.142 0 7.5 3.358 7.5 7.5s-3.358 7.5-7.5 7.5z" fill="#cecece"/></g><g><path d="m212.381 373.945h-20.68c-4.142 0-7.5-3.358-7.5-7.5s3.358-7.5 7.5-7.5h20.68c4.142 0 7.5 3.358 7.5 7.5s-3.358 7.5-7.5 7.5z" fill="#cecece"/></g><g><path d="m410.583 373.945h-167.049c-4.142 0-7.5-3.358-7.5-7.5s3.358-7.5 7.5-7.5h167.049c4.142 0 7.5 3.358 7.5 7.5s-3.358 7.5-7.5 7.5z" fill="#cecece"/></g><g><path d="m283.436 412.66h-91.735c-4.142 0-7.5-3.358-7.5-7.5s3.358-7.5 7.5-7.5h91.735c4.142 0 7.5 3.358 7.5 7.5s-3.358 7.5-7.5 7.5z" fill="#cecece"/></g></g></g></svg>